<?xml version="1.0" encoding="UTF-8"?>
<svg version="1.1" xmlns="http://www.w3.org/2000/svg" width="1024" height="1024">
<path d="M0 0 C1.32136963 0.14477783 1.32136963 0.14477783 2.66943359 0.29248047 C26.42637931 2.92254408 49.73341241 8.15059024 72.54003906 15.23779297 C74.69664889 15.90600812 76.8572999 16.55492931 79.0234375 17.19140625 C84.61875602 18.85435057 90.04630111 20.71152562 95.4375 22.94921875 C98.27052297 24.11093091 101.13185647 25.17803136 104 26.25 C123.24035637 33.66226844 141.40944078 43.04982968 159.21484375 53.40625 C161.44916168 54.68479378 163.68220831 55.88299196 166 57 C166 57.66 166 58.32 166 59 C167.98 59.66 169.96 60.32 172 61 C172 61.66 172 62.32 172 63 C172.53496094 63.08121094 173.06992187 63.16242188 173.62109375 63.24609375 C176.89543427 64.28377474 179.26216648 66.07878865 182.0625 68.0625 C182.62670654 68.46154541 183.19091309 68.86059082 183.7722168 69.27172852 C184.93934441 70.09922706 186.10445496 70.92957755 187.26757812 71.76269531 C188.93641803 72.95458943 190.61512213 74.13111207 192.296875 75.3046875 C193.29203125 76.00851563 194.2871875 76.71234375 195.3125 77.4375 C196.21613281 78.07558594 197.11976563 78.71367187 198.05078125 79.37109375 C198.69402344 79.90863281 199.33726562 80.44617188 200 81 C200 81.66 200 82.32 200 83 C200.680625 83.20625 201.36125 83.4125 202.0625 83.625 C205.91639375 85.42895027 209.07787764 87.9010345 212 91 C212 91.66 212 92.32 212 93 C212.55171875 93.2475 213.1034375 93.495 213.671875 93.75 C216.45136707 95.24234474 218.7814707 97.03672523 221.25 99 C222.14203125 99.70125 223.0340625 100.4025 223.953125 101.125 C224.62859375 101.74375 225.3040625 102.3625 226 103 C226 103.66 226 104.32 226 105 C226.66 105 227.32 105 228 105 C228 105.66 228 106.32 228 107 C228.66 107 229.32 107 230 107 C230 107.66 230 108.32 230 109 C230.66 109 231.32 109 232 109 C232 109.66 232 110.32 232 111 C232.66 111 233.32 111 234 111 C234 111.66 234 112.32 234 113 C234.66 113 235.32 113 236 113 C236 113.66 236 114.32 236 115 C236.66 115 237.32 115 238 115 C238 115.66 238 116.32 238 117 C238.66 117 239.32 117 240 117 C240 117.66 240 118.32 240 119 C240.66 119 241.32 119 242 119 C242 119.66 242 120.32 242 121 C242.66 121 243.32 121 244 121 C244 121.66 244 122.32 244 123 C244.66 123 245.32 123 246 123 C247.58533702 124.71332754 249.09541215 126.49689047 250.5625 128.3125 C251.36816406 129.29863281 252.17382812 130.28476563 253.00390625 131.30078125 C255 134 255 134 256 137 C256.66 137 257.32 137 258 137 C258 137.66 258 138.32 258 139 C258.66 139 259.32 139 260 139 C260 139.66 260 140.32 260 141 C260.66 141 261.32 141 262 141 C266 146.41176471 266 146.41176471 266 149 C266.66 149 267.32 149 268 149 C272 154.41176471 272 154.41176471 272 157 C272.66 157 273.32 157 274 157 C278 162.41176471 278 162.41176471 278 165 C278.66 165 279.32 165 280 165 C281.4453125 166.94921875 281.4453125 166.94921875 283.125 169.6875 C283.74890625 170.698125 284.3728125 171.70875 285.015625 172.75 C285.67046875 173.8225 286.3253125 174.895 287 176 C287.63421875 177.010625 288.2684375 178.02125 288.921875 179.0625 C296.72603168 191.54915069 303.83296996 204.23651439 309.99389648 217.61767578 C311.42558216 220.72224251 312.83266811 223.72288206 314.6015625 226.65234375 C316.27506023 229.46176312 317.36431215 232.31009881 318.5 235.375 C319.76153589 238.76335601 321.04733269 242.10965199 322.48046875 245.4296875 C325.34209099 252.15339631 327.64276525 259.08688646 330 266 C330.25185059 266.7326709 330.50370117 267.4653418 330.76318359 268.22021484 C343.79339717 306.47787389 349.14514367 346.54164858 349.1875 386.8125 C349.18926743 388.09297714 349.18926743 388.09297714 349.19107056 389.39932251 C349.18837304 406.63916407 348.7812251 423.8523747 346.3125 440.9375 C346.05412354 442.75713257 346.05412354 442.75713257 345.79052734 444.61352539 C340.85887446 478.01074753 332.85401585 512.08502018 319 543 C318.21882812 544.81564453 318.21882812 544.81564453 317.421875 546.66796875 C311.85522074 559.60534457 306.13179404 572.51409831 299.2265625 584.80078125 C298.08871761 586.8409299 297.02720968 588.90238024 296 591 C295.34 591 294.68 591 294 591 C293.896875 591.53625 293.79375 592.0725 293.6875 592.625 C292.81907303 595.62502044 291.44379704 598.2379535 290 601 C289.34 601 288.68 601 288 601 C287.90074219 601.55171875 287.80148437 602.1034375 287.69921875 602.671875 C285.58959147 609.69610885 280.06457129 616.11591854 275.61328125 621.875 C272.88575887 625.46766871 270.3236091 629.18182888 267.734375 632.875 C267.16203125 633.57625 266.5896875 634.2775 266 635 C265.34 635 264.68 635 264 635 C264 635.66 264 636.32 264 637 C263.34 637 262.68 637 262 637 C261.7525 637.721875 261.505 638.44375 261.25 639.1875 C259.87730408 642.27606582 258.27646704 644.51011418 256 647 C255.34 647 254.68 647 254 647 C254 647.66 254 648.32 254 649 C253.34 649 252.68 649 252 649 C251.78730469 649.52980469 251.57460938 650.05960938 251.35546875 650.60546875 C249.47268266 653.9315433 246.92072283 656.55183564 244.3125 659.3125 C243.77230225 659.89064453 243.23210449 660.46878906 242.67553711 661.06445312 C238.86498004 665.12691481 234.982105 669.10552078 231 673 C230.28070312 673.72574219 229.56140625 674.45148437 228.8203125 675.19921875 C225.20220589 678.79226922 221.51714567 682.30901156 217.8125 685.8125 C217.08869141 686.50537109 216.36488281 687.19824219 215.61914062 687.91210938 C214.92626953 688.56630859 214.23339844 689.22050781 213.51953125 689.89453125 C212.57750854 690.78942261 212.57750854 690.78942261 211.61645508 691.70239258 C210 693 210 693 208 693 C208 693.66 208 694.32 208 695 C206.3203125 696.5078125 206.3203125 696.5078125 204.125 698.125 C203.40570312 698.66382813 202.68640625 699.20265625 201.9453125 699.7578125 C200 701 200 701 198 701 C198 701.66 198 702.32 198 703 C196.11436356 704.56246919 194.23359101 706.00977577 192.25 707.4375 C191.71117187 707.83259766 191.17234375 708.22769531 190.6171875 708.63476562 C189.08111168 709.7605968 187.54064898 710.88043513 186 712 C185.25234375 712.58910156 184.5046875 713.17820312 183.734375 713.78515625 C182 715 182 715 180 715 C180 715.66 180 716.32 180 717 C178.02 717.66 176.04 718.32 174 719 C174 719.66 174 720.32 174 721 C172.5222168 722.12573242 172.5222168 722.12573242 170.44921875 723.35546875 C169.69294189 723.80978271 168.93666504 724.26409668 168.1574707 724.73217773 C166.93483521 725.45256226 166.93483521 725.45256226 165.6875 726.1875 C164.02815864 727.18147881 162.36930312 728.17626912 160.7109375 729.171875 C159.90108398 729.65591797 159.09123047 730.13996094 158.25683594 730.63867188 C155.40876891 732.35663182 152.60852963 734.13613637 149.8125 735.9375 C138.74338942 743 138.74338942 743 134 743 C134 743.66 134 744.32 134 745 C133.45061768 745.25692627 132.90123535 745.51385254 132.33520508 745.77856445 C129.82633199 746.95378039 127.3194091 748.13310075 124.8125 749.3125 C123.94818359 749.71662109 123.08386719 750.12074219 122.19335938 750.53710938 C118.80714502 752.13291154 115.49301854 753.70277011 112.28515625 755.63671875 C109.50024532 757.29814424 106.66423174 758.37382387 103.625 759.5 C100.23664399 760.76153589 96.89034801 762.04733269 93.5703125 763.48046875 C89.84180946 765.06732617 86.07238656 766.47377979 82.25 767.8125 C81.15570679 768.19607666 81.15570679 768.19607666 80.03930664 768.58740234 C60.04449404 775.53308048 40.05179071 781.09511251 19.14013672 784.48242188 C17.0580754 784.82560101 14.9787921 785.18611325 12.90283203 785.56445312 C-6.65144733 789.07274713 -26.15929978 789.37702589 -45.96507645 789.37516785 C-47.35172171 789.37505688 -48.73836742 789.37590503 -50.12501144 789.37776184 C-74.16829918 789.40994921 -98.62616246 789.29295626 -122 783 C-122 782.34 -122 781.68 -122 781 C-122.87140625 780.89558594 -123.7428125 780.79117188 -124.640625 780.68359375 C-135.82655621 778.40738682 -145.24446492 769.53232841 -151.77734375 760.55859375 C-161.79899247 744.671858 -164.08729857 728.64112304 -161.45703125 710.19140625 C-158.87054217 700.65904039 -153.23944054 692.27269962 -148 684 C-147.36094727 682.98945557 -147.36094727 682.98945557 -146.70898438 681.95849609 C-144.79497117 678.94385089 -142.86228403 675.9433171 -140.91015625 672.953125 C-139.21446423 670.33156433 -137.5942344 667.68391057 -136 665 C-131.74802997 658.03776732 -127.45019348 651.10443052 -123.125 644.1875 C-122.70605469 643.51750977 -122.28710938 642.84751953 -121.85546875 642.15722656 C-119.72604628 638.75372129 -117.59341996 635.35226175 -115.45703125 631.953125 C-111.22471942 625.21198959 -107.03399045 618.44973161 -102.9375 611.625 C-102.5552124 610.98812256 -102.1729248 610.35124512 -101.77905273 609.69506836 C-99.80528326 606.39427871 -99.80528326 606.39427871 -98 603 C-97.34 603 -96.68 603 -96 603 C-95.896875 602.46375 -95.79375 601.9275 -95.6875 601.375 C-94.81907303 598.37497956 -93.44379704 595.7620465 -92 593 C-91.34 593 -90.68 593 -90 593 C-89.88084229 592.41532959 -89.76168457 591.83065918 -89.63891602 591.22827148 C-88.97363174 588.90803854 -88.10939081 587.35063285 -86.77734375 585.34765625 C-86.32480225 584.65953857 -85.87226074 583.9714209 -85.40600586 583.26245117 C-84.67909546 582.17347534 -84.67909546 582.17347534 -83.9375 581.0625 C-82.9363809 579.53979768 -81.9363919 578.01635179 -80.9375 576.4921875 C-80.19306641 575.35861816 -80.19306641 575.35861816 -79.43359375 574.20214844 C-77.38762171 571.05932354 -75.40131632 567.88214251 -73.4375 564.6875 C-72.81746094 563.68074219 -72.19742187 562.67398438 -71.55859375 561.63671875 C-70.27026952 559.45722288 -69.09009294 557.28322949 -68 555 C-67.34 555 -66.68 555 -66 555 C-65.75765625 554.13761719 -65.5153125 553.27523437 -65.265625 552.38671875 C-63.8782852 548.6743002 -62.08440249 546.00840818 -59.75 542.8125 C-56.22774921 537.89812488 -53.21135815 532.91633182 -50.3984375 527.5546875 C-48.61448019 524.29572637 -46.55557243 521.27683127 -44.45703125 518.21484375 C-42.08049854 514.60225918 -40.0365636 510.81179824 -38 507 C-37.34 507 -36.68 507 -36 507 C-35.814375 506.21625 -35.62875 505.4325 -35.4375 504.625 C-33.78951181 500.46920369 -31.52717496 497.36228294 -28.91796875 493.7578125 C-26.99401116 490.99138876 -25.29770403 488.17430775 -23.625 485.25 C-19.99112308 478.90293695 -16.05519799 472.78320972 -12.07128906 466.65332031 C-9.91453395 463.32480034 -7.79446239 459.9728893 -5.66796875 456.625 C-4.56841525 454.89455514 -3.46689713 453.16535685 -2.36328125 451.4375 C0.61560689 446.77126963 3.57025934 442.09124589 6.49487305 437.39086914 C13.94852861 425.4194951 21.45084032 413.47758476 29.5625 401.9375 C29.98015625 401.33534668 30.3978125 400.73319336 30.828125 400.11279297 C31.83365822 398.70345966 32.91043872 397.34542694 34 396 C34.66 396 35.32 396 36 396 C36.2475 395.401875 36.495 394.80375 36.75 394.1875 C38.18072525 391.68373081 39.5691582 390.51927612 42 389 C42.66 389 43.32 389 44 389 C44 388.34 44 387.68 44 387 C56.71440365 376.95476009 73.36704806 375.15666393 89 376 C100.24664594 377.5063612 111.01719226 382.01337176 120 389 C120 389.66 120 390.32 120 391 C120.58910156 391.25523437 121.17820312 391.51046875 121.78515625 391.7734375 C132.40763189 397.65607833 137.57883909 411.73651728 141.1875 422.5625 C142.16915534 426.7156572 142.70520953 430.7465947 143 435 C143.05414062 435.76054688 143.10828125 436.52109375 143.1640625 437.3046875 C143.94471999 458.9501906 132.13408604 476.88640042 120.78515625 494.234375 C119.04324156 496.82241293 119.04324156 496.82241293 118 499 C117.34 499 116.68 499 116 499 C115.90589844 499.53109375 115.81179688 500.0621875 115.71484375 500.609375 C114.76554381 503.78408301 113.22551277 506.38726699 111.5625 509.25 C110.63630859 510.86648438 110.63630859 510.86648438 109.69140625 512.515625 C109.13324219 513.33546875 108.57507813 514.1553125 108 515 C107.34 515 106.68 515 106 515 C105.71125 515.9075 105.4225 516.815 105.125 517.75 C104.23468224 520.32202908 103.28505587 522.61346766 102 525 C101.34 525 100.68 525 100 525 C99.34 526.98 98.68 528.96 98 531 C97.34 531 96.68 531 96 531 C95.62875 532.28777344 95.62875 532.28777344 95.25 533.6015625 C93.89824199 537.27665458 92.16716481 540.11651291 90 543.375 C89.19687529 544.59566964 88.39483699 545.8170546 87.59375 547.0390625 C86.96339844 547.9966748 86.96339844 547.9966748 86.3203125 548.97363281 C83.99929644 552.53584311 81.75042811 556.14293663 79.5 559.75 C79.066875 560.4414209 78.63375 561.1328418 78.1875 561.84521484 C75.97980114 565.35757212 75.97980114 565.35757212 74 569 C73.34 569 72.68 569 72 569 C71.88301758 569.57580811 71.76603516 570.15161621 71.64550781 570.74487305 C70.95218752 573.16703627 69.9905171 574.93936318 68.671875 577.08203125 C68.20136719 577.84966797 67.73085938 578.61730469 67.24609375 579.40820312 C66.75238281 580.20162109 66.25867188 580.99503906 65.75 581.8125 C65.03263672 582.98522461 65.03263672 582.98522461 64.30078125 584.18164062 C62.04495159 587.84048629 59.7393483 591.41537714 57.203125 594.88671875 C54.89656611 597.82718074 54.89656611 597.82718074 54 601 C53.34 601 52.68 601 52 601 C51.76410156 601.84046875 51.52820313 602.6809375 51.28515625 603.546875 C49.80134192 607.53378037 47.79467159 610.73472356 45.4375 614.25 C42.54119471 618.52025878 42.54119471 618.52025878 40 623 C39.34 623 38.68 623 38 623 C37.85884766 623.79664063 37.85884766 623.79664063 37.71484375 624.609375 C36.76554381 627.78408301 35.22551277 630.38726699 33.5625 633.25 C32.94503906 634.32765625 32.32757812 635.4053125 31.69140625 636.515625 C31.13324219 637.33546875 30.57507813 638.1553125 30 639 C29.34 639 28.68 639 28 639 C27.896875 639.53625 27.79375 640.0725 27.6875 640.625 C26.81907303 643.62502044 25.44379704 646.2379535 24 649 C23.34 649 22.68 649 22 649 C21.896875 649.56589844 21.79375 650.13179687 21.6875 650.71484375 C20.87528398 653.41453905 19.62018491 655.26074692 18 657.5625 C16.19972845 660.12875248 14.99823137 662.00530589 14 665 C13.34 665 12.68 665 12 665 C11.67 666.32 11.34 667.64 11 669 C23.83376682 666.28098161 35.8521886 662.82646976 47.97021484 657.8125 C51.02341555 656.59033835 54.13520668 655.55327828 57.25 654.5 C65.2487394 651.69391543 72.76115109 647.94328057 80.1484375 643.79296875 C82 643 82 643 86 643 C86 642.34 86 641.68 86 641 C86.83660156 640.61070312 87.67320312 640.22140625 88.53515625 639.8203125 C102.77251877 632.97754912 115.79510318 624.07964003 128.17578125 614.27734375 C130 613 130 613 132 613 C132 612.34 132 611.68 132 611 C132.66 611 133.32 611 134 611 C134 610.34 134 609.68 134 609 C135.53270571 607.64864497 137.12776773 606.36746113 138.75 605.125 C141.39627693 603.08999756 143.87023238 601.1329888 146.203125 598.7421875 C148 597 148 597 150 597 C150.66 595.68 151.32 594.36 152 593 C152.66 593 153.32 593 154 593 C154.66 591.68 155.32 590.36 156 589 C156.66 589 157.32 589 158 589 C158 588.34 158 587.68 158 587 C158.66 587 159.32 587 160 587 C160.2475 586.44828125 160.495 585.8965625 160.75 585.328125 C162.24234474 582.54863293 164.03672523 580.2185293 166 577.75 C167.051875 576.41195313 167.051875 576.41195313 168.125 575.046875 C168.74375 574.37140625 169.3625 573.6959375 170 573 C170.66 573 171.32 573 172 573 C172 572.34 172 571.68 172 571 C172.66 571 173.32 571 174 571 C174.39517822 569.89289673 174.39517822 569.89289673 174.79833984 568.76342773 C176.00039832 565.99908399 177.31867459 564.10234041 179.2265625 561.78515625 C182.90830176 557.17679198 186.18100979 552.39305088 189.375 547.4375 C189.93662842 546.56762451 190.49825684 545.69774902 191.0769043 544.80151367 C199.46355101 531.69955065 206.70170307 518.22330631 213 504 C213.50015625 502.87078125 214.0003125 501.7415625 214.515625 500.578125 C218.05071588 492.1482929 220.87464938 483.505167 223.6875 474.8125 C224.0683374 473.63647217 224.4491748 472.46044434 224.84155273 471.2487793 C239.40114734 425.51618446 240.03458096 377.9026965 231 331 C230.87044922 330.30245605 230.74089844 329.60491211 230.60742188 328.88623047 C228.01698862 315.17382835 223.61725302 302.14644273 219 289 C218.48826964 287.50391022 217.9765497 286.00781688 217.46484375 284.51171875 C214.19383136 275.17467028 209.84094448 266.61815334 205.06054688 257.96923828 C203.98796982 255.97766219 202.98516468 253.96197429 201.9921875 251.9296875 C199.54337013 246.97879128 196.57174861 242.41760456 193.609375 237.7578125 C192 235 192 235 192 233 C191.34 233 190.68 233 190 233 C188.95361798 231.36205542 187.96332307 229.68813105 187 228 C185.68588891 226.13216065 184.35177297 224.27826659 183 222.4375 C182.319375 221.50808594 181.63875 220.57867187 180.9375 219.62109375 C179.73251326 217.99096048 178.50674704 216.37572672 177.25 214.78515625 C176 213 176 213 176 211 C175.34 211 174.68 211 174 211 C172.41466298 209.28667246 170.90458785 207.50310953 169.4375 205.6875 C168.63183594 204.70136719 167.82617188 203.71523438 166.99609375 202.69921875 C165 200 165 200 164 197 C161.99983534 195.79117904 161.99983534 195.79117904 160 195 C160 194.34 160 193.68 160 193 C159.34 193 158.68 193 158 193 C158 192.34 158 191.68 158 191 C157.34 191 156.68 191 156 191 C156 190.34 156 189.68 156 189 C154.68 188.34 153.36 187.68 152 187 C152 186.34 152 185.68 152 185 C151.1646875 184.64421875 151.1646875 184.64421875 150.3125 184.28125 C146.50440287 182.17135835 143.59568198 179.05935991 140.4375 176.09375 C138.29817774 174.25612703 136.52290718 173.17483017 134 172 C132.64691687 170.68671343 131.31129922 169.35500919 130 168 C129.34 167.67 128.68 167.34 128 167 C128 166.34 128 165.68 128 165 C127.236875 164.71125 126.47375 164.4225 125.6875 164.125 C123 163 123 163 120 161 C120 160.34 120 159.68 120 159 C118.02 158.34 116.04 157.68 114 157 C114 156.34 114 155.68 114 155 C112.02 154.34 110.04 153.68 108 153 C108 152.34 108 151.68 108 151 C107.175 150.7525 106.35 150.505 105.5 150.25 C101.47626529 148.81295189 97.78020976 146.97645485 94 145 C94 144.34 94 143.68 94 143 C93.41532959 142.86875732 92.83065918 142.73751465 92.22827148 142.60229492 C90.11328918 142.03062172 88.3190616 141.30839694 86.34765625 140.36328125 C85.31705078 139.87287354 85.31705078 139.87287354 84.265625 139.37255859 C83.53859375 139.02273926 82.8115625 138.67291992 82.0625 138.3125 C80.52219672 137.58190199 78.98183162 136.85143431 77.44140625 136.12109375 C74.81983276 134.87190255 72.20324829 133.61394505 69.58984375 132.34765625 C13.94033273 105.82443798 -56.42209421 99.47458447 -116 115 C-117.34524981 115.32363582 -118.69146816 115.64330098 -120.0390625 115.95703125 C-128.21472718 117.90743491 -136.13652339 120.25924984 -144.06103516 123.06958008 C-147.60019006 124.30482545 -150.20811663 125 -154 125 C-154 125.66 -154 126.32 -154 127 C-154.83402344 127.30292969 -155.66804688 127.60585937 -156.52734375 127.91796875 C-162.64045073 130.19375314 -168.39214953 132.58223524 -174.01953125 135.8828125 C-176 137 -176 137 -179.5625 138.5 C-183.06922698 140.03020814 -186.04672368 141.87167866 -189.203125 144.01171875 C-191 145 -191 145 -194 145 C-194 145.66 -194 146.32 -194 147 C-194.74830078 147.38478516 -194.74830078 147.38478516 -195.51171875 147.77734375 C-201.19991873 150.81036959 -206.43645989 154.28775448 -211.65698242 158.05249023 C-215.79371795 161 -215.79371795 161 -218 161 C-218 161.66 -218 162.32 -218 163 C-219.6796875 164.5078125 -219.6796875 164.5078125 -221.875 166.125 C-222.59429687 166.66382813 -223.31359375 167.20265625 -224.0546875 167.7578125 C-226 169 -226 169 -228 169 C-228 169.66 -228 170.32 -228 171 C-228.721875 171.4125 -229.44375 171.825 -230.1875 172.25 C-232.97857761 173.98667051 -234.56269137 175.79885386 -236.578125 178.35546875 C-238.1153687 180.13343468 -239.75669763 181.55890836 -241.5625 183.0625 C-245.45569727 186.37506747 -248.91602023 189.99659485 -252.375 193.75 C-252.89908447 194.31726807 -253.42316895 194.88453613 -253.96313477 195.46899414 C-256.18049228 197.89742529 -258.17239049 200.25858574 -260 203 C-260.66 203 -261.32 203 -262 203 C-262 203.66 -262 204.32 -262 205 C-262.66 205 -263.32 205 -264 205 C-264.37125 205.804375 -264.37125 205.804375 -264.75 206.625 C-266.30652537 209.5823982 -268.03435673 212.29724051 -270 215 C-270.66 215 -271.32 215 -272 215 C-272.34804688 215.78503906 -272.34804688 215.78503906 -272.703125 216.5859375 C-274.43402712 219.80791794 -276.59059997 222.68333579 -278.75 225.625 C-282.43836597 230.69317677 -285.80567774 235.81142894 -288.84375 241.3046875 C-289.2253125 241.86414063 -289.606875 242.42359375 -290 243 C-290.66 243 -291.32 243 -292 243 C-292.103125 243.53625 -292.20625 244.0725 -292.3125 244.625 C-293.18092697 247.62502044 -294.55620296 250.2379535 -296 253 C-296.66 253 -297.32 253 -298 253 C-298.185625 253.86625 -298.185625 253.86625 -298.375 254.75 C-299.20548992 257.73976372 -300.6122213 260.27006363 -302.0625 263 C-302.99500661 264.98934744 -303.54074016 266.85678743 -304 269 C-304.66 269 -305.32 269 -306 269 C-306 270.32 -306 271.64 -306 273 C-306.66 273 -307.32 273 -308 273 C-308.10699219 273.721875 -308.21398437 274.44375 -308.32421875 275.1875 C-309.05770286 278.24015063 -310.16773029 280.33505667 -311.8125 283 C-312.56466797 284.2375 -312.56466797 284.2375 -313.33203125 285.5 C-320.65916764 296.4821248 -331.44986593 304.50926583 -344.359375 307.4609375 C-362.0069536 310.07399098 -378.23838934 307.42584873 -393.125 297.3125 C-394.548125 296.1678125 -394.548125 296.1678125 -396 295 C-396 294.34 -396 293.68 -396 293 C-396.66 293 -397.32 293 -398 293 C-398 292.34 -398 291.68 -398 291 C-398.66 291 -399.32 291 -400 291 C-410.40562255 279.82138835 -413.96432378 264.9483374 -414 250 C-413.40826713 239.63181103 -409.87978024 230.50424153 -406 221 C-405.34 221 -404.68 221 -404 221 C-403.88785156 220.29488281 -403.77570313 219.58976563 -403.66015625 218.86328125 C-402.93685092 215.72610488 -401.80542309 213.09872094 -400.4375 210.1875 C-399.98246094 209.21167969 -399.52742187 208.23585938 -399.05859375 207.23046875 C-398.70925781 206.49441406 -398.35992187 205.75835937 -398 205 C-397.34 205 -396.68 205 -396 205 C-395.89300781 204.46246094 -395.78601563 203.92492187 -395.67578125 203.37109375 C-394.8307003 200.40598314 -393.56202893 197.82199731 -392.1875 195.0625 C-391.43533203 193.53302734 -391.43533203 193.53302734 -390.66796875 191.97265625 C-389.01653026 189.02946025 -387.13180035 186.60649273 -385 184 C-384.2756571 182.74979962 -383.58682194 181.47825738 -382.9375 180.1875 C-379.95955236 174.64494761 -376.34347247 169.55982522 -372.74584961 164.40893555 C-372.27800049 163.73902588 -371.81015137 163.06911621 -371.328125 162.37890625 C-370.9043457 161.7763501 -370.48056641 161.17379395 -370.04394531 160.55297852 C-368.93156206 158.96965736 -368.93156206 158.96965736 -368 157 C-367.34 157 -366.68 157 -366 157 C-365.71125 156.4225 -365.4225 155.845 -365.125 155.25 C-364.08333333 153.16666667 -363.04166667 151.08333333 -362 149 C-361.34 149 -360.68 149 -360 149 C-359.7525 148.46375 -359.505 147.9275 -359.25 147.375 C-357.69347463 144.4176018 -355.96564327 141.70275949 -354 139 C-353.34 139 -352.68 139 -352 139 C-351.76410156 138.44570313 -351.52820313 137.89140625 -351.28515625 137.3203125 C-349.6873545 134.43552758 -347.68148991 132.28827968 -345.4375 129.875 C-342.36280814 126.68492491 -342.36280814 126.68492491 -340 123 C-339.34 123 -338.68 123 -338 123 C-338 122.34 -338 121.68 -338 121 C-337.34 121 -336.68 121 -336 121 C-336 120.34 -336 119.68 -336 119 C-335.34 119 -334.68 119 -334 119 C-334 118.34 -334 117.68 -334 117 C-333.34 117 -332.68 117 -332 117 C-331.773125 116.44828125 -331.54625 115.8965625 -331.3125 115.328125 C-329.61274074 112.31307583 -327.45195184 110.18769631 -325 107.75 C-324.113125 106.85796875 -323.22625 105.9659375 -322.3125 105.046875 C-320 103 -320 103 -318 103 C-317.01 101.02 -317.01 101.02 -316 99 C-315.34 99 -314.68 99 -314 99 C-314 98.34 -314 97.68 -314 97 C-313.34 97 -312.68 97 -312 97 C-312 96.34 -312 95.68 -312 95 C-311.34 95 -310.68 95 -310 95 C-310 94.34 -310 93.68 -310 93 C-301.16611445 83.58999147 -289.4206209 75.90764396 -278.9375 68.4375 C-278.22343994 67.92485596 -277.50937988 67.41221191 -276.77368164 66.8840332 C-273.29167909 64.43098243 -270.08603737 62.34608249 -266 61 C-266 60.34 -266 59.68 -266 59 C-259.375 55 -259.375 55 -256 55 C-256 54.34 -256 53.68 -256 53 C-255.41476562 52.68289062 -254.82953125 52.36578125 -254.2265625 52.0390625 C-253.36804688 51.57242188 -252.50953125 51.10578125 -251.625 50.625 C-250.61566406 50.07714844 -249.60632813 49.52929688 -248.56640625 48.96484375 C-246.01520807 47.56953292 -243.4867829 46.13888866 -240.96484375 44.69140625 C-229.93673535 38.39763081 -218.65865651 33.02075476 -207 28 C-205.79859375 27.47792969 -204.5971875 26.95585937 -203.359375 26.41796875 C-140.56369067 -0.0876515 -67.48802855 -8.06524224 0 0 Z " fill="#78DCD3" transform="translate(544,118)"/>
<path d="M0 0 C1.15886719 -0.01160156 2.31773437 -0.02320313 3.51171875 -0.03515625 C18.98246744 0.01728697 31.4235445 5.58590537 42.5 16.375 C43.03882813 16.89320313 43.57765625 17.41140625 44.1328125 17.9453125 C45.99321887 19.89076601 47.1522925 22.04242932 48.5 24.375 C48.89445312 24.88289063 49.28890625 25.39078125 49.6953125 25.9140625 C58.11269624 37.35565597 58.37237387 57.18403861 56.9375 70.625 C55.75340806 77.51426217 53.20708224 82.51661903 49.5 88.375 C48.70273978 89.70002881 47.9087071 91.02700274 47.1171875 92.35546875 C41.67938702 101.43063465 35.96103146 110.30625121 30.15527344 119.14916992 C25.63847711 126.06832876 21.47087905 133.12904548 17.5 140.375 C16.84 140.375 16.18 140.375 15.5 140.375 C14.84 142.355 14.18 144.335 13.5 146.375 C12.84 146.375 12.18 146.375 11.5 146.375 C11.1596875 147.3340625 11.1596875 147.3340625 10.8125 148.3125 C9.01434174 152.50820261 6.76095979 156.41400556 4.5 160.375 C3.84 160.375 3.18 160.375 2.5 160.375 C2.17 162.025 1.84 163.675 1.5 165.375 C0.84 165.375 0.18 165.375 -0.5 165.375 C-0.78875 166.1175 -1.0775 166.86 -1.375 167.625 C-2.32302644 169.94239797 -3.34845911 172.15417115 -4.5 174.375 C-5.16 174.375 -5.82 174.375 -6.5 174.375 C-7.16 176.355 -7.82 178.335 -8.5 180.375 C-9.16 180.375 -9.82 180.375 -10.5 180.375 C-10.5825 180.91125 -10.665 181.4475 -10.75 182 C-11.55590913 184.55204557 -12.80397216 186.42416305 -14.328125 188.60546875 C-15.67420793 190.63805398 -16.83420948 192.73411926 -18 194.875 C-20.00526389 198.52149527 -22.01477296 202.03279812 -24.5 205.375 C-25.16 205.375 -25.82 205.375 -26.5 205.375 C-26.5 206.365 -26.5 207.355 -26.5 208.375 C-27.16 208.375 -27.82 208.375 -28.5 208.375 C-28.84804688 209.61830078 -28.84804688 209.61830078 -29.203125 210.88671875 C-30.74759976 215.0409837 -32.85833831 218.47620952 -35.25 222.1875 C-35.69883545 222.89527588 -36.1476709 223.60305176 -36.61010742 224.33227539 C-39.40812083 228.72872139 -42.29024706 233.06313741 -45.2109375 237.37890625 C-46.55346086 239.45778332 -47.75369007 241.57713596 -48.9375 243.75 C-50.91684211 247.38093602 -53.00891906 250.92206257 -55.1875 254.4375 C-56.05955078 255.84708984 -56.05955078 255.84708984 -56.94921875 257.28515625 C-57.71685547 258.31962891 -57.71685547 258.31962891 -58.5 259.375 C-59.16 259.375 -59.82 259.375 -60.5 259.375 C-60.78875 260.1175 -61.0775 260.86 -61.375 261.625 C-62.32302644 263.94239797 -63.34845911 266.15417115 -64.5 268.375 C-65.16 268.375 -65.82 268.375 -66.5 268.375 C-66.71140625 269.17164063 -66.9228125 269.96828125 -67.140625 270.7890625 C-68.93434259 275.52076579 -71.51615721 279.50920973 -74.25 283.75 C-74.76304687 284.56210937 -75.27609375 285.37421875 -75.8046875 286.2109375 C-78.27898976 290.09024556 -80.81760747 293.84214937 -83.640625 297.4765625 C-86.05187659 300.62526241 -87.80711814 303.79482237 -89.49902344 307.37109375 C-91.25544732 310.88736867 -93.44013833 314.11391566 -95.625 317.375 C-96.06714844 318.05433594 -96.50929688 318.73367188 -96.96484375 319.43359375 C-98.08746885 321.11922721 -99.28755397 322.75277255 -100.5 324.375 C-101.16 324.375 -101.82 324.375 -102.5 324.375 C-102.62511963 324.96039551 -102.75023926 325.54579102 -102.87915039 326.14892578 C-103.91338386 329.85719978 -105.98070397 332.95784026 -107.9375 336.25 C-108.602052 337.37740601 -108.602052 337.37740601 -109.2800293 338.52758789 C-112.61212077 344.09439657 -116.25789087 349.34549596 -120.10375977 354.56494141 C-122.35199515 357.65110295 -124.27515575 360.65965471 -125.875 364.125 C-128.31825498 369.40243075 -131.48586014 374.16042111 -134.6875 379 C-135.22358887 379.81952148 -135.75967773 380.63904297 -136.31201172 381.48339844 C-136.82135254 382.24426758 -137.33069336 383.00513672 -137.85546875 383.7890625 C-138.31590576 384.4795166 -138.77634277 385.1699707 -139.25073242 385.88134766 C-139.86911987 386.62070557 -139.86911987 386.62070557 -140.5 387.375 C-141.16 387.375 -141.82 387.375 -142.5 387.375 C-142.83 388.6125 -143.16 389.85 -143.5 391.125 C-145.98821618 398.60138542 -150.8755449 404.68890701 -155.40234375 411.046875 C-155.99144531 411.87703125 -156.58054687 412.7071875 -157.1875 413.5625 C-157.76113281 414.36816406 -158.33476562 415.17382812 -158.92578125 416.00390625 C-160.43477391 418.27675623 -161.65456715 420.56329961 -162.875 423 C-166.87107761 430.42877378 -174.04449975 435.26415134 -180.87109375 439.953125 C-182.73928255 441.58387014 -183.41279171 443.17351599 -184.5 445.375 C-187.125 446.625 -187.125 446.625 -189.5 447.375 C-189.5 446.715 -189.5 446.055 -189.5 445.375 C-188.84 445.375 -188.18 445.375 -187.5 445.375 C-187.5 444.715 -187.5 444.055 -187.5 443.375 C-188.86125 443.8390625 -188.86125 443.8390625 -190.25 444.3125 C-205.29100446 449.22975146 -225.00428055 448.68088498 -239.42578125 442.1015625 C-247.65919191 437.47746147 -247.65919191 437.47746147 -250.5 434.375 C-250.5 433.715 -250.5 433.055 -250.5 432.375 C-251.08007812 432.13523437 -251.66015625 431.89546875 -252.2578125 431.6484375 C-260.47338095 426.98245263 -266.2980129 415.34330142 -269.05786133 406.60961914 C-270.11760166 401.25357095 -269.728576 395.62651804 -269.75 390.1875 C-269.770625 388.89779297 -269.79125 387.60808594 -269.8125 386.27929688 C-269.89746286 365.4952568 -257.06831602 348.75918026 -245.65625 332.171875 C-244.45057655 330.29819329 -243.46007308 328.38404182 -242.5 326.375 C-241.84 326.375 -241.18 326.375 -240.5 326.375 C-240.273125 325.529375 -240.04625 324.68375 -239.8125 323.8125 C-238.5108752 320.40348266 -237.00765051 318.15206042 -234.84375 315.27734375 C-233.44202333 313.29292256 -232.320824 311.27295528 -231.1875 309.125 C-229.21988124 305.47528444 -226.97575807 302.20078382 -224.5 298.875 C-221.5368898 294.88897746 -218.99408845 290.89898649 -216.65625 286.5234375 C-215.43179994 284.24827692 -214.14750588 282.02457369 -212.8125 279.8125 C-212.41675781 279.15121094 -212.02101562 278.48992187 -211.61328125 277.80859375 C-211.24589844 277.33550781 -210.87851563 276.86242187 -210.5 276.375 C-209.84 276.375 -209.18 276.375 -208.5 276.375 C-208.40847656 275.82585937 -208.31695312 275.27671875 -208.22265625 274.7109375 C-207.29114768 271.69989899 -205.74506447 269.58223495 -203.9375 267 C-200.83231218 262.46164858 -198.03146328 257.8746813 -195.375 253.0625 C-192.54548721 247.95761617 -189.42928815 243.68763334 -185.5 239.375 C-185.17 238.385 -184.84 237.395 -184.5 236.375 C-183.84 236.375 -183.18 236.375 -182.5 236.375 C-182.41983643 235.68510986 -182.33967285 234.99521973 -182.25708008 234.28442383 C-181.30788228 230.63670047 -179.48248088 227.89727297 -177.38671875 224.82421875 C-176.97589554 224.20658157 -176.56507233 223.5889444 -176.14179993 222.95259094 C-174.83121378 220.98408058 -173.5102418 219.02285881 -172.1875 217.0625 C-170.45647485 214.48688534 -168.73085081 211.90778726 -167.01171875 209.32421875 C-166.60000427 208.70611328 -166.18828979 208.08800781 -165.76409912 207.45117188 C-163.71523614 204.34111589 -161.81824602 201.24884783 -160.21484375 197.88671875 C-158.31822621 194.0027571 -156.02271358 190.88707155 -153.375 187.5 C-148.03625456 180.46799574 -143.75597317 173.04605417 -139.59375 165.2734375 C-136.02775748 158.62222466 -136.02775748 158.62222466 -134.5 156.375 C-133.84 156.375 -133.18 156.375 -132.5 156.375 C-132.2525 155.653125 -132.005 154.93125 -131.75 154.1875 C-130.5 151.375 -130.5 151.375 -128.625 149.09375 C-126.36928014 146.20775548 -124.84241752 143.35590897 -123.25 140.0625 C-122.72921875 138.99386719 -122.2084375 137.92523438 -121.671875 136.82421875 C-121.28515625 136.01597656 -120.8984375 135.20773437 -120.5 134.375 C-119.84 134.375 -119.18 134.375 -118.5 134.375 C-118.15195312 133.35792969 -118.15195312 133.35792969 -117.796875 132.3203125 C-116.17739293 128.64233213 -114.0317839 125.54450703 -111.75 122.25 C-108.14501276 116.9589443 -104.91936603 111.6293186 -101.9453125 105.953125 C-99.86187174 102.23671715 -97.41611196 98.81775933 -94.91796875 95.37109375 C-93.46667193 93.43617501 -93.46667193 93.43617501 -92.5 91.375 C-91.84 91.375 -91.18 91.375 -90.5 91.375 C-90.24863281 90.51777344 -89.99726563 89.66054688 -89.73828125 88.77734375 C-88.41828593 85.15047963 -86.73806701 82.20350826 -84.6875 78.9375 C-84.33292725 78.3698291 -83.97835449 77.8021582 -83.61303711 77.21728516 C-81.68700049 74.15856912 -79.6919819 71.17025442 -77.5625 68.25 C-75.37926509 65.5062083 -75.37926509 65.5062083 -74.5 62.375 C-73.84 62.375 -73.18 62.375 -72.5 62.375 C-72.26152344 61.7046875 -72.02304687 61.034375 -71.77734375 60.34375 C-70.18333409 56.63901807 -68.166807 53.30852192 -66.0625 49.875 C-65.66740234 49.22402344 -65.27230469 48.57304687 -64.86523438 47.90234375 C-64.09725574 46.63728744 -63.32605772 45.37417852 -62.55126953 44.11328125 C-61.61423335 42.56388561 -60.72361183 40.98663528 -59.83984375 39.40625 C-59.39769531 38.7359375 -58.95554687 38.065625 -58.5 37.375 C-57.84 37.375 -57.18 37.375 -56.5 37.375 C-56.12875 36.34826172 -56.12875 36.34826172 -55.75 35.30078125 C-54.28290648 31.86686549 -52.45200695 28.7345113 -50.5 25.5625 C-49.96632813 24.6662793 -49.96632813 24.6662793 -49.421875 23.75195312 C-48.50555558 22.25609586 -47.50864753 20.81022138 -46.5 19.375 C-45.84 19.375 -45.18 19.375 -44.5 19.375 C-44.5 18.715 -44.5 18.055 -44.5 17.375 C-43.84 17.375 -43.18 17.375 -42.5 17.375 C-42.5 16.715 -42.5 16.055 -42.5 15.375 C-29.56281649 4.38790665 -16.87793969 -0.16896714 0 0 Z " fill="#11AFE9" transform="translate(440.5,343.625)"/>
</svg>
